<svg id="visual" viewBox="0 0 900 600" width="900" height="600" xmlns="http://www.w3.org/2000/svg" xmlns:xlink="http://www.w3.org/1999/xlink" version="1.1"><path d="M0 205L13.7 191C27.3 177 54.7 149 82 145C109.3 141 136.7 161 163.8 174C191 187 218 193 245.2 191C272.3 189 299.7 179 327 180C354.3 181 381.7 193 409 185C436.3 177 463.7 149 491 131C518.3 113 545.7 105 573 108C600.3 111 627.7 125 654.8 137C682 149 709 159 736.2 162C763.3 165 790.7 161 818 161C845.3 161 872.7 165 886.3 167L900 169L900 0L886.3 0C872.7 0 845.3 0 818 0C790.7 0 763.3 0 736.2 0C709 0 682 0 654.8 0C627.7 0 600.3 0 573 0C545.7 0 518.3 0 491 0C463.7 0 436.3 0 409 0C381.7 0 354.3 0 327 0C299.7 0 272.3 0 245.2 0C218 0 191 0 163.8 0C136.7 0 109.3 0 82 0C54.7 0 27.3 0 13.7 0L0 0Z" fill="#484d54"></path><path d="M0 271L13.7 262C27.3 253 54.7 235 82 229C109.3 223 136.7 229 163.8 239C191 249 218 263 245.2 270C272.3 277 299.7 277 327 272C354.3 267 381.7 257 409 239C436.3 221 463.7 195 491 187C518.3 179 545.7 189 573 205C600.3 221 627.7 243 654.8 252C682 261 709 257 736.2 254C763.3 251 790.7 249 818 255C845.3 261 872.7 275 886.3 282L900 289L900 167L886.3 165C872.7 163 845.3 159 818 159C790.7 159 763.3 163 736.2 160C709 157 682 147 654.8 135C627.7 123 600.3 109 573 106C545.7 103 518.3 111 491 129C463.7 147 436.3 175 409 183C381.7 191 354.3 179 327 178C299.7 177 272.3 187 245.2 189C218 191 191 185 163.8 172C136.7 159 109.3 139 82 143C54.7 147 27.3 175 13.7 189L0 203Z" fill="#373b41"></path><path d="M0 397L13.7 395C27.3 393 54.7 389 82 394C109.3 399 136.7 413 163.8 415C191 417 218 407 245.2 410C272.3 413 299.7 429 327 437C354.3 445 381.7 445 409 444C436.3 443 463.7 441 491 445C518.3 449 545.7 459 573 471C600.3 483 627.7 497 654.8 485C682 473 709 435 736.2 414C763.3 393 790.7 389 818 396C845.3 403 872.7 421 886.3 430L900 439L900 287L886.3 280C872.7 273 845.3 259 818 253C790.7 247 763.3 249 736.2 252C709 255 682 259 654.8 250C627.7 241 600.3 219 573 203C545.7 187 518.3 177 491 185C463.7 193 436.3 219 409 237C381.7 255 354.3 265 327 270C299.7 275 272.3 275 245.2 268C218 261 191 247 163.8 237C136.7 227 109.3 221 82 227C54.7 233 27.3 251 13.7 260L0 269Z" fill="#262a2f"></path><path d="M0 553L13.7 546C27.3 539 54.7 525 82 527C109.3 529 136.7 547 163.8 546C191 545 218 525 245.2 521C272.3 517 299.7 529 327 530C354.3 531 381.7 521 409 514C436.3 507 463.7 503 491 509C518.3 515 545.7 531 573 542C600.3 553 627.7 559 654.8 562C682 565 709 565 736.2 555C763.3 545 790.7 525 818 522C845.3 519 872.7 533 886.3 540L900 547L900 437L886.3 428C872.7 419 845.3 401 818 394C790.7 387 763.3 391 736.2 412C709 433 682 471 654.8 483C627.7 495 600.3 481 573 469C545.7 457 518.3 447 491 443C463.7 439 436.3 441 409 442C381.7 443 354.3 443 327 435C299.7 427 272.3 411 245.2 408C218 405 191 415 163.8 413C136.7 411 109.3 397 82 392C54.7 387 27.3 391 13.7 393L0 395Z" fill="#212529"></path><path d="M0 601L13.7 601C27.3 601 54.7 601 82 601C109.3 601 136.7 601 163.8 601C191 601 218 601 245.2 601C272.3 601 299.7 601 327 601C354.3 601 381.7 601 409 601C436.3 601 463.7 601 491 601C518.3 601 545.7 601 573 601C600.3 601 627.7 601 654.8 601C682 601 709 601 736.2 601C763.3 601 790.7 601 818 601C845.3 601 872.7 601 886.3 601L900 601L900 545L886.3 538C872.7 531 845.3 517 818 520C790.7 523 763.3 543 736.2 553C709 563 682 563 654.8 560C627.7 557 600.3 551 573 540C545.7 529 518.3 513 491 507C463.7 501 436.3 505 409 512C381.7 519 354.3 529 327 528C299.7 527 272.3 515 245.2 519C218 523 191 543 163.8 544C136.7 545 109.3 527 82 525C54.7 523 27.3 537 13.7 544L0 551Z" fill="#1d2024"></path></svg>