<svg id="visual" viewBox="0 0 900 600" width="900" height="600" xmlns="http://www.w3.org/2000/svg" xmlns:xlink="http://www.w3.org/1999/xlink" version="1.1"><rect x="0" y="0" width="900" height="600" fill="#000000"></rect><path d="M511 0L464 12.5C417 25 323 50 296.5 75C270 100 311 125 353.8 150C396.7 175 441.3 200 448 225C454.7 250 423.3 275 433.3 300C443.3 325 494.7 350 521.2 375C547.7 400 549.3 425 506.3 450C463.3 475 375.7 500 337.3 525C299 550 310 575 315.5 587.5L321 600L0 600L0 587.5C0 575 0 550 0 525C0 500 0 475 0 450C0 425 0 400 0 375C0 350 0 325 0 300C0 275 0 250 0 225C0 200 0 175 0 150C0 125 0 100 0 75C0 50 0 25 0 12.5L0 0Z" fill="#FFFFFF" stroke-linecap="round" stroke-linejoin="miter"></path></svg>